<svg width="36" height="36" viewBox="0 0 36 36" fill="none" xmlns="http://www.w3.org/2000/svg">
<mask id="mask0" mask-type="alpha" maskUnits="userSpaceOnUse" x="0" y="0" width="36" height="36">
<circle cx="18" cy="18" r="18" fill="#FF8370"/>
</mask>
<g mask="url(#mask0)">
<rect x="-12.4614" width="60.9231" height="36" rx="8" fill="#5DB5C0"/>
<path fill-rule="evenodd" clip-rule="evenodd" d="M11.2885 14.5383H24.0295C24.7835 14.5383 25.3946 15.1495 25.3946 15.9034V16.8135H26.0772V20.4538H25.3946V21.3639C25.3946 22.1178 24.7835 22.729 24.0295 22.729H11.2885C10.5345 22.729 9.92334 22.1178 9.92334 21.3639V15.9034C9.92334 15.1495 10.5345 14.5383 11.2885 14.5383ZM24.0295 15.4484H20.763V21.8189H24.0295C24.2808 21.8189 24.4845 21.6152 24.4845 21.3639V15.9034C24.4845 15.6521 24.2808 15.4484 24.0295 15.4484Z" fill="white"/>
</g>
</svg>
