<svg width="36" height="36" viewBox="0 0 36 36" fill="none" xmlns="http://www.w3.org/2000/svg">
<mask id="mask0" mask-type="alpha" maskUnits="userSpaceOnUse" x="0" y="0" width="36" height="36">
<circle cx="18" cy="18" r="18" fill="#FF8370"/>
</mask>
<g mask="url(#mask0)">
<rect x="-12.4615" width="60.9231" height="36" rx="8" fill="#FF9C8C"/>
<path fill-rule="evenodd" clip-rule="evenodd" d="M13.3269 11.0769C12.0843 11.0769 11.0769 12.0843 11.0769 13.3269V22.6731C11.0769 23.9157 12.0843 24.9231 13.3269 24.9231H22.6731C23.9157 24.9231 24.9231 23.9157 24.9231 22.6731V13.3269C24.9231 12.0843 23.9157 11.0769 22.6731 11.0769H13.3269ZM17.6256 14.673L14.749 17.0535C14.6156 17.1639 14.5384 17.3274 14.5384 17.4999V20.8806C14.5384 21.2014 14.8004 21.4615 15.1235 21.4615H20.8765C21.1996 21.4615 21.4615 21.2014 21.4615 20.8806V17.4994C21.4612 17.3268 21.3841 17.1636 21.2509 17.0535L18.3744 14.673C18.1575 14.4936 17.8425 14.4936 17.6256 14.673ZM15.4038 17.5493L18 15.4038L20.5961 17.5493L20.5961 20.5961H15.4038V17.5493Z" fill="white"/>
</g>
</svg>
