<svg width="36" height="36" viewBox="0 0 36 36" fill="none" xmlns="http://www.w3.org/2000/svg">
<mask id="mask0" mask-type="alpha" maskUnits="userSpaceOnUse" x="0" y="0" width="36" height="36">
<circle cx="18" cy="18" r="18" fill="#FF8370"/>
</mask>
<g mask="url(#mask0)">
<rect x="-12.4614" width="60.9231" height="36" rx="5.53846" fill="#FF9C8C"/>
<path fill-rule="evenodd" clip-rule="evenodd" d="M18.0002 16.8459C19.912 16.8459 21.4618 15.2961 21.4618 13.3844C21.4618 11.4726 19.912 9.92285 18.0002 9.92285C16.0885 9.92285 14.5387 11.4726 14.5387 13.3844C14.5387 15.2961 16.0885 16.8459 18.0002 16.8459ZM13.3462 18.9698C12.0002 19.3694 11.0771 20.6063 11.0771 22.0103C11.0771 23.7619 12.4971 25.1818 14.2487 25.1818H21.7435C23.4996 25.1818 24.9233 23.7582 24.9233 22.002C24.9233 20.6012 24.0067 19.3654 22.6662 18.959L19.0677 17.8678C18.4194 17.6712 17.7277 17.6692 17.0782 17.862L13.3462 18.9698Z" fill="white"/>
</g>
</svg>
